<svg width="24.000000" height="24.000000" viewBox="0 0 24 24" fill="none" xmlns="http://www.w3.org/2000/svg" xmlns:xlink="http://www.w3.org/1999/xlink">
	<desc>
			Created with Pixso.
	</desc>
	<defs/>
	<path id="Shape" d="M2.3999 0L21.6001 0C22.9199 0 24 1.08 24 2.4L24 21.6C24 22.92 22.9199 24 21.6001 24L2.3999 24C1.08008 24 0 22.92 0 21.6L0 2.4C0 1.08 1.08008 0 2.3999 0ZM5.3999 7.56C4.19995 7.56 3.23999 6.6 3.23999 5.4C3.23999 4.2 4.19995 3.24 5.3999 3.24C6.6001 3.24 7.56006 4.2 7.56006 5.4C7.56006 6.6 6.6001 7.56 5.3999 7.56ZM16.8 20.4L20.3999 20.4L20.3999 13.56C20.3999 11.28 18.48 9.36 16.2 9.36C15.1201 9.36 13.8 10.08 13.2 11.04L13.2 9.6L9.6001 9.6L9.6001 20.4L13.2 20.4L13.2 14.04C13.2 13.08 14.04 12.24 15 12.24C15.96 12.24 16.8 13.08 16.8 14.04L16.8 20.4ZM3.6001 20.4L7.19995 20.4L7.19995 9.6L3.6001 9.6L3.6001 20.4Z" clip-rule="evenodd" fill="#FFFFFF" fill-opacity="1.000000" fill-rule="evenodd"/>
</svg>
